HIERARCHY
ROOT Hips
{
    OFFSET 0.000000 0.000000 0.000000
    CHANNELS 6 Xposition Yposition Zposition Zrotation Xrotation Yrotation
    JOINT Spine
    {
        OFFSET -0.000000 14.517291 0.000000
        CHANNELS 3 Zrotation Xrotation Yrotation
        JOINT Spine1
        {
            OFFSET -0.000000 37.558300 0.000000
            CHANNELS 3 Zrotation Xrotation Yrotation
            JOINT Neck
            {
                OFFSET -0.000000 37.404057 3.400369
                CHANNELS 3 Zrotation Xrotation Yrotation
                JOINT Head
                {
                    OFFSET -0.000000 24.785618 -3.540803
                    CHANNELS 3 Zrotation Xrotation Yrotation
                    End Site
                    {
                        OFFSET -0.000000 35.408028 0.000000
                    }
                }
            }
            JOINT LeftShoulder
            {
                OFFSET 6.992933 33.973492 -0.192664
                CHANNELS 3 Zrotation Xrotation Yrotation
                JOINT LeftArm
                {
                    OFFSET 21.527611 0.000000 0.000000
                    CHANNELS 3 Zrotation Xrotation Yrotation
                    JOINT LeftForeArm
                    {
                        OFFSET 56.353916 0.000000 0.000000
                        CHANNELS 3 Zrotation Xrotation Yrotation
                        JOINT LeftHand
                        {
                            OFFSET 47.774071 0.000000 0.000000
                            CHANNELS 3 Zrotation Xrotation Yrotation
                            End Site
                            {
                                OFFSET 26.556021 0.000000 0.000000
                            }
                        }
                    }
                }
            }
            JOINT RightShoulder
            {
                OFFSET -7.065357 33.973492 -0.192664
                CHANNELS 3 Zrotation Xrotation Yrotation
                JOINT RightArm
                {
                    OFFSET -21.527611 0.000000 0.000000
                    CHANNELS 3 Zrotation Xrotation Yrotation
                    JOINT RightForeArm
                    {
                        OFFSET -56.353916 0.000000 0.000000
                        CHANNELS 3 Zrotation Xrotation Yrotation
                        JOINT RightHand
                        {
                            OFFSET -47.774071 0.000000 0.000000
                            CHANNELS 3 Zrotation Xrotation Yrotation
                            End Site
                            {
                                OFFSET -26.556021 0.000000 0.000000
                            }
                        }
                    }
                }
            }
        }
    }
    JOINT LeftUpLeg
    {
        OFFSET 17.704014 0.000000 0.000000
        CHANNELS 3 Zrotation Xrotation Yrotation
        JOINT LeftLeg
        {
            OFFSET -0.000000 -81.181816 0.000000
            CHANNELS 3 Zrotation Xrotation Yrotation
            JOINT LeftFoot
            {
                OFFSET -0.000000 -62.821102 0.000000
                CHANNELS 3 Zrotation Xrotation Yrotation
                JOINT LeftToeBase
                {
                    OFFSET -0.000000 -11.507608 26.556021
                    CHANNELS 3 Zrotation Xrotation Yrotation
                    End Site
                    {
                        OFFSET -0.000000 0.000000 7.081605
                    }
                }
            }
        }
    }
    JOINT RightUpLeg
    {
        OFFSET -17.704014 0.000000 0.000000
        CHANNELS 3 Zrotation Xrotation Yrotation
        JOINT RightLeg
        {
            OFFSET -0.000000 -81.181816 0.000000
            CHANNELS 3 Zrotation Xrotation Yrotation
            JOINT RightFoot
            {
                OFFSET -0.000000 -62.821102 0.000000
                CHANNELS 3 Zrotation Xrotation Yrotation
                JOINT RightToeBase
                {
                    OFFSET -0.000000 -11.507608 26.556021
                    CHANNELS 3 Zrotation Xrotation Yrotation
                    End Site
                    {
                        OFFSET -0.000000 0.000000 7.081605
                    }
                }
            }
        }
    }
}
MOTION
Frames:    4
Frame Time:    0.008333
-29.603561    152.108490    -31.909969    2.050534    -0.084315    18.472570    -1.648219    2.204747    9.544914    4.351899    3.066490    3.055030    -14.528661    3.668084    -16.802458    18.703955    -7.114070    -12.044785    3.367640    3.245807    -5.172649    -35.311581    33.575344    30.823469    -24.772043    22.880289    -108.287926    -8.597423    -10.077439    -30.053053    -2.177719    12.115953    0.624808    40.232155    8.570166    50.341545    -31.804663    -25.738678    55.814987    9.569469    -6.563578    30.865517    -1.005086    -30.852032    -27.590836    -12.175502    25.231514    -22.130747    -8.198276    -1.394276    35.137791    0.000000    0.000000    0.000000    -0.095415    10.184562    -13.793484    3.153987    26.506498    -3.747895    -0.171052    -31.835115    -8.195519    0.000000    0.000000    0.000000    
-29.603380    152.105682    -31.915167    2.050834    -0.083662    18.487774    -1.643538    2.200241    9.545124    4.352260    3.071442    3.054957    -14.526507    3.656677    -16.813002    18.684984    -7.105934    -12.059772    3.368861    3.246723    -5.170652    -35.336628    33.595173    30.840267    -24.753185    22.856441    -108.326073    -8.622374    -10.093266    -30.051409    -2.175240    12.115853    0.606825    40.251919    8.532314    50.346302    -31.760761    -25.719891    55.870487    9.575570    -6.545221    30.876863    -1.014422    -30.855480    -27.591522    -12.169449    25.233547    -22.141859    -8.205740    -1.393104    35.137344    0.000000    0.000000    0.000000    -0.093253    10.185256    -13.800209    3.154612    26.504398    -3.743366    -0.168701    -31.844913    -8.196162    0.000000    0.000000    0.000000    
-29.600418    152.102188    -31.924898    2.049985    -0.076022    18.499245    -1.642060    2.187142    9.545054    4.352436    3.080757    3.054641    -14.519945    3.644431    -16.812893    18.679680    -7.106524    -12.059786    3.376647    3.237675    -5.164974    -35.327072    33.589298    30.823755    -24.749397    22.897284    -108.340851    -8.259381    -10.160966    -29.912792    -2.170165    12.100096    0.600499    40.261200    8.508955    50.337086    -31.741491    -25.719397    55.905922    9.593722    -6.537402    30.881472    -1.022594    -30.867456    -27.596216    -12.175346    25.230717    -22.114149    -8.193455    -1.371082    35.101082    0.000000    0.000000    0.000000    -0.093939    10.172573    -13.816519    3.141018    26.514303    -3.729331    -0.167549    -31.857901    -8.198192    0.000000    0.000000    0.000000    
-29.596802    152.096481    -31.930395    2.048007    -0.076636    18.512918    -1.631694    2.179490    9.544540    4.352122    3.084965    3.054402    -14.532347    3.662843    -16.822121    18.692047    -7.117789    -12.066151    3.379810    3.243594    -5.169515    -35.334576    33.588734    30.830873    -24.739370    22.901035    -108.357185    -8.293015    -10.142694    -29.923517    -2.173651    12.099005    0.603059    40.276794    8.482895    50.327404    -31.730822    -25.721464    55.934792    9.604276    -6.532086    30.882872    -1.030166    -30.871748    -27.596025    -12.173681    25.236130    -22.123688    -8.178484    -1.358493    35.101719    0.000000    0.000000    0.000000    -0.089053    10.172377    -13.820739    3.140069    26.517906    -3.735075    -0.165404    -31.867826    -8.200116    0.000000    0.000000    0.000000    
